first trial
nRows=22
nColumns=38

# SIMM Motion File Header:
name Sujet_07_velo_100.mvnx
datacolumns 38
datarows 22
otherdata 1
range 3.8830 4.2330
endheader
time pelvis_tilt  pelvis_list  pelvis_rotation  pelvis_tx  pelvis_ty  pelvis_tz  hip_flexion_r  hip_adduction_r  hip_rotation_r  knee_angle_r  ankle_angle_r  subtalar_angle_r  mtp_angle_r  hip_flexion_l  hip_adduction_l  hip_rotation_l  knee_angle_l  ankle_angle_l  subtalar_angle_l  mtp_angle_l  lumbar_extension  lumbar_bending  lumbar_rotation  arm_flex_r  arm_add_r  arm_rot_r  elbow_flex_r  pro_sup_r  wrist_flex_r  wrist_dev_r  arm_flex_l  arm_add_l  arm_rot_l  elbow_flex_l  pro_sup_l  wrist_flex_l  wrist_dev_l
3.8830	-29.1825	-5.5909	-59.5751	0.0000	1.2500	-0.0000	86.7810	0.9947	-8.4461	75.7042	15.0421	-6.7893	0.0000	57.0764	-10.8983	-4.4610	58.7761	0.7146	-1.5240	-0.0000	-17.1440	-0.5561	2.8596	108.9602	-0.7410	26.0398	9.6875	59.0044	-47.3588	-40.8020	82.8153	3.4034	41.5364	8.3229	35.8806	-43.6838	-48.2834	
3.9000	-28.9660	-5.1328	-58.7273	0.0000	1.2500	-0.0000	83.7552	0.4947	-9.7454	69.5729	13.4044	-5.6729	0.0000	59.8212	-10.7031	-4.2655	65.8773	2.2036	-1.2439	0.0000	-17.2059	-0.5264	2.6266	108.8571	-0.8252	25.7443	9.6892	59.0523	-47.2958	-40.7383	82.7767	3.3820	41.7000	8.5038	36.0818	-43.7170	-48.1890	
3.9170	-28.7563	-4.5929	-57.6497	0.0000	1.2500	-0.0000	80.2147	-0.3069	-10.8348	63.2203	10.7647	-4.4449	0.0000	62.8311	-10.5007	-4.0260	72.6395	3.1021	-0.4725	-0.0000	-17.2697	-0.4957	2.3386	108.6999	-1.0423	25.2078	9.7272	59.3106	-47.2970	-40.7524	82.7191	3.3223	41.7531	8.7432	36.5025	-43.7555	-48.0298	
3.9330	-28.5456	-3.9855	-56.3918	0.0000	1.2500	-0.0000	76.2108	-1.2906	-11.8394	56.6995	7.3253	-3.1098	-0.0000	66.1054	-10.2485	-3.8021	79.2026	3.6374	0.5486	0.0000	-17.3335	-0.4647	2.0019	108.5030	-1.3336	24.5508	9.7861	59.6389	-47.3333	-40.8154	82.6542	3.2393	41.7591	9.0270	37.0637	-43.7971	-47.8360	
3.9500	-28.4054	-3.3846	-55.1462	0.0000	1.2500	-0.0000	72.2383	-2.2741	-12.5136	50.6072	3.4083	-1.8449	-0.0000	69.3769	-9.9160	-3.5850	85.0432	4.4049	1.1976	-0.0000	-17.3797	-0.4357	1.6652	108.3645	-1.5846	24.0751	9.8610	59.7390	-47.3881	-40.9144	82.6948	3.1864	41.7895	9.2826	37.5683	-43.8134	-47.6719	
3.9670	-28.3733	-2.8152	-53.9369	0.0000	1.2500	-0.0000	68.3307	-3.3171	-12.6753	44.9280	-1.2571	-0.6055	0.0000	72.6127	-9.4716	-3.4212	90.0508	5.6130	1.2705	-0.0000	-17.4079	-0.4037	1.3399	108.3619	-1.7368	23.9465	9.9400	59.4107	-47.4708	-41.0684	82.9487	3.1909	41.8535	9.4944	37.9667	-43.7716	-47.5519	
3.9830	-28.4128	-2.2443	-52.7339	0.0000	1.2500	-0.0000	64.4442	-4.4362	-12.5148	39.6688	-6.4070	0.5434	0.0000	75.8431	-8.9547	-3.2764	94.3429	7.0446	0.9954	-0.0000	-17.4185	-0.3735	1.0145	108.4197	-1.8508	23.9991	10.0288	58.8529	-47.5719	-41.2583	83.3070	3.2286	41.9420	9.6772	38.3092	-43.7039	-47.4611	
4.0000	-28.4901	-1.6554	-51.6460	0.0000	1.2500	-0.0000	60.9685	-5.4194	-12.2412	35.4200	-10.9308	1.3642	0.0000	78.9068	-8.4488	-2.9820	97.7435	8.6522	0.4080	0.0000	-17.3930	-0.3632	0.7027	108.4091	-1.9884	24.0373	10.1536	58.3671	-47.6463	-41.4142	83.5555	3.2753	42.0991	9.8068	38.5506	-43.6798	-47.4200	
4.0170	-28.6006	-1.0172	-50.7229	0.0000	1.2500	-0.0000	58.0056	-6.2115	-11.7193	32.3098	-14.7820	1.8768	-0.0000	81.8346	-7.9761	-2.3192	100.2717	10.6299	-0.6628	0.0000	-17.3125	-0.3903	0.4053	108.2543	-2.2035	24.0116	10.3392	58.0373	-47.6688	-41.5075	83.5853	3.3190	42.4017	9.8545	38.6332	-43.7443	-47.4647	
4.0330	-28.7512	-0.3586	-49.9125	0.0000	1.2500	-0.0000	55.4634	-6.9206	-11.0101	30.1922	-18.0211	2.1931	0.0000	84.6085	-7.5025	-1.4754	101.9173	12.7772	-2.0161	-0.0000	-17.1956	-0.4389	0.1216	108.0309	-2.4400	23.9711	10.5665	57.7806	-47.6651	-41.5671	83.5054	3.3690	42.7728	9.8525	38.6162	-43.8522	-47.5594	
4.0500	-28.9272	0.2449	-49.1724	0.0000	1.2500	-0.0000	53.4467	-7.5261	-10.5684	29.2641	-19.6766	2.2036	-0.0000	86.9964	-7.0477	-0.8671	102.4520	14.4626	-3.0899	0.0000	-17.0796	-0.4773	-0.1375	107.8365	-2.5920	23.8688	10.8003	57.6492	-47.6671	-41.6099	83.4295	3.4321	43.0264	9.8670	38.6303	-43.9378	-47.6181	
4.0670	-29.1502	0.8037	-48.4165	0.0000	1.2500	-0.0000	51.9257	-7.9947	-10.6133	29.6105	-19.0045	1.6510	0.0000	89.0237	-6.6253	-0.6063	101.6961	15.5115	-3.7081	0.0000	-16.9649	-0.4881	-0.3879	107.6813	-2.5932	23.6079	11.0466	57.7356	-47.6947	-41.6442	83.3716	3.5270	43.0933	9.9041	38.7175	-43.9679	-47.6006	
4.0830	-29.4015	1.3088	-47.7296	0.0000	1.2500	-0.0000	50.9381	-8.3273	-10.8757	31.1617	-16.7333	0.7513	-0.0000	90.6656	-6.2524	-0.5493	99.8193	16.1078	-4.0886	-0.0000	-16.8504	-0.4880	-0.6137	107.5567	-2.5097	23.2869	11.2979	57.9472	-47.7279	-41.6616	83.3177	3.6351	43.0429	9.9574	38.8357	-43.9760	-47.5472	
4.1000	-29.6112	1.6508	-47.3304	0.0000	1.2500	-0.0000	50.6901	-8.5376	-11.0694	33.8838	-14.0823	0.0407	-0.0000	91.6131	-5.9713	-0.7089	97.1049	16.1669	-4.3024	0.0000	-16.7717	-0.4947	-0.7565	107.5316	-2.4365	23.1510	11.4977	58.0592	-47.7389	-41.6537	83.3396	3.7081	42.8970	10.0722	38.9890	-43.9968	-47.4929	
4.1170	-29.7792	1.7843	-47.3289	0.0000	1.2500	-0.0000	51.3276	-8.6205	-11.1792	37.9412	-11.1454	-0.3443	-0.0000	91.7818	-5.7942	-1.1345	93.5347	15.6029	-4.3574	-0.0000	-16.7465	-0.5218	-0.7838	107.6756	-2.4199	23.3863	11.6160	57.8915	-47.7187	-41.6201	83.5164	3.7324	42.6034	10.3194	39.2429	-44.0625	-47.4429	
4.1330	-29.9109	1.7493	-47.6196	0.0000	1.2500	-0.0000	52.7066	-8.5855	-11.2072	43.1629	-7.8239	-0.5847	0.0000	91.2615	-5.6973	-1.7516	89.1281	14.5037	-4.2686	-0.0000	-16.7570	-0.5552	-0.7282	107.9192	-2.4149	23.8061	11.6833	57.6241	-47.6764	-41.5614	83.7685	3.7218	42.2136	10.6276	39.5311	-44.1407	-47.3919	
4.1500	-29.9445	1.5630	-48.0984	0.0000	1.2500	-0.0000	54.5964	-8.4674	-10.9015	49.0224	-5.0385	-0.6018	-0.0000	90.0039	-5.6624	-2.3884	84.2249	13.0472	-4.0976	0.0000	-16.7854	-0.5710	-0.6280	108.1217	-2.3798	24.0948	11.7363	57.5719	-47.6114	-41.4700	83.9305	3.6695	41.9057	10.8298	39.6602	-44.1697	-47.3592	
4.1670	-29.8272	1.1844	-48.7545	0.0000	1.2500	-0.0000	57.0463	-8.2147	-10.0344	55.6972	-3.2394	-0.1971	-0.0000	87.8854	-5.6545	-3.0749	78.8073	11.2463	-3.8498	-0.0000	-16.8362	-0.5466	-0.4799	108.2383	-2.3311	24.0719	11.7938	57.9213	-47.5030	-41.3338	83.9461	3.5790	41.8124	10.8279	39.4823	-44.1424	-47.3705	
4.1830	-29.6051	0.6605	-49.5937	0.0000	1.2500	-0.0000	60.0042	-7.8042	-8.8843	63.0274	-1.9634	0.4643	-0.0000	85.0306	-5.6873	-3.8182	72.8866	9.0980	-3.4806	0.0000	-16.9059	-0.5048	-0.2874	108.3138	-2.2531	23.9177	11.8335	58.4841	-47.3716	-41.1651	83.8716	3.4470	41.8014	10.7185	39.1456	-44.0659	-47.4000	
4.2000	-29.3677	0.1397	-50.5372	0.0000	1.2500	-0.0000	63.0889	-7.3442	-7.9382	69.9768	-0.7688	0.9249	0.0000	81.7543	-5.8279	-4.4179	66.8454	6.7509	-2.9748	-0.0000	-16.9641	-0.4896	-0.0993	108.3409	-2.0556	23.8575	11.8357	59.0153	-47.2789	-40.9933	83.7095	3.2576	41.6532	10.6301	38.9019	-43.8996	-47.3903	
4.2170	-29.1086	-0.3233	-51.5902	0.0000	1.2500	-0.0000	66.2064	-6.9077	-7.4421	76.3311	0.3813	1.0751	0.0000	77.9730	-6.1077	-4.8380	60.6203	4.2039	-2.2444	0.0000	-17.0022	-0.5226	0.0561	108.2570	-1.6507	24.0312	11.7888	59.4089	-47.2602	-40.8159	83.4101	2.9650	41.2005	10.6329	38.8989	-43.5716	-47.2801	
4.2330	-28.8323	-0.7804	-52.7461	0.0000	1.2500	-0.0000	69.4459	-6.4494	-7.1670	82.2953	1.4340	1.0220	-0.0000	73.7546	-6.4852	-5.1772	54.2874	1.4514	-1.3740	0.0000	-17.0278	-0.5817	0.2075	108.1175	-1.1265	24.2972	11.7098	59.7737	-47.2804	-40.6351	83.0198	2.6168	40.6097	10.6592	38.9892	-43.1528	-47.1299	
